<svg xmlns="http://www.w3.org/2000/svg" width="1600" height="900" viewBox="0 0 1600 900" role="img" aria-labelledby="title desc"><title id="title">Preview do GlossFlow Enterprise</title><desc id="desc">SaaS para gestão de salões com layout seguro para o GitHub.</desc><defs><linearGradient id="bg" x1="0" y1="0" x2="1" y2="1"><stop stop-color="#120b18"/><stop offset=".55" stop-color="#2b1233"/><stop offset="1" stop-color="#120b18"/></linearGradient><linearGradient id="ac" x1="0" y1="0" x2="1" y2="0"><stop stop-color="#ff8fcf"/><stop offset="1" stop-color="#b06cff"/></linearGradient><filter id="sh"><feDropShadow dx="0" dy="18" stdDeviation="22" flood-opacity=".48"/></filter><clipPath id="safe"><rect x="70" y="60" width="720" height="760"/></clipPath></defs><rect width="1600" height="900" fill="url(#bg)"/><circle cx="1420" cy="130" r="330" fill="#ff8fcf" opacity=".08"/><circle cx="170" cy="850" r="280" fill="#b06cff" opacity=".06"/><g font-family="Arial,Helvetica,sans-serif"><g clip-path="url(#safe)"><text x="90" y="92" fill="#ffb7df" font-size="27" font-weight="700">GLOSSFLOW ENTERPRISE</text><rect x="90" y="132" width="315" height="44" rx="22" fill="#ff8fcf" opacity=".13"/><text x="112" y="161" fill="#ffd5ec" font-size="17" font-weight="700">AGENDA • CRM • FINANCEIRO • ESTOQUE</text><text x="90" y="304" fill="#fff" font-size="66" font-weight="700">Gestão de beleza,</text><text x="90" y="388" fill="url(#ac)" font-size="66" font-weight="700">sem complicação.</text><text x="94" y="458" fill="#decfe3" font-size="23">Agenda, clientes, profissionais, estoque e</text><text x="94" y="493" fill="#decfe3" font-size="23">financeiro em uma plataforma multiempresa.</text><rect x="92" y="565" width="186" height="54" rx="27" fill="url(#ac)"/><text x="126" y="600" fill="#1b0d1d" font-size="17" font-weight="700">ABRIR PAINEL</text><rect x="298" y="565" width="162" height="54" rx="27" fill="#fff" opacity=".08"/><text x="337" y="600" fill="#fff" font-size="17" font-weight="700">AGENDAR</text></g><g transform="translate(880 100)" filter="url(#sh)"><rect width="630" height="680" rx="34" fill="#fbf8fc"/><rect width="630" height="72" rx="34" fill="#26112d"/><circle cx="38" cy="36" r="8" fill="#ff8fcf"/><circle cx="64" cy="36" r="8" fill="#b06cff"/><circle cx="90" cy="36" r="8" fill="#63d6a0"/><text x="124" y="44" fill="#fff" font-size="19" font-weight="700">Painel executivo do salão</text><g transform="translate(30 102)"><rect width="174" height="110" rx="20" fill="#fff" stroke="#eaddea"/><text x="20" y="32" fill="#806c82" font-size="14">Agendamentos</text><text x="20" y="76" fill="#2c1830" font-size="32" font-weight="700">48</text><rect x="198" width="174" height="110" rx="20" fill="#fff" stroke="#eaddea"/><text x="218" y="32" fill="#806c82" font-size="14">Receita mensal</text><text x="218" y="76" fill="#2c1830" font-size="27" font-weight="700">R$ 18.420</text><rect x="396" width="174" height="110" rx="20" fill="#fff" stroke="#eaddea"/><text x="416" y="32" fill="#806c82" font-size="14">Clientes ativos</text><text x="416" y="76" fill="#2c1830" font-size="32" font-weight="700">326</text></g><rect x="30" y="242" width="370" height="286" rx="24" fill="#fff" stroke="#eaddea"/><text x="54" y="280" fill="#2c1830" font-size="19" font-weight="700">Agenda de hoje</text><g font-size="15"><rect x="54" y="306" width="322" height="54" rx="14" fill="#f9eef7"/><text x="72" y="339" fill="#6c526f">09:00 • Corte e escova • Ana</text><rect x="54" y="374" width="322" height="54" rx="14" fill="#f5effc"/><text x="72" y="407" fill="#6c526f">11:30 • Coloração • Mariana</text><rect x="54" y="442" width="322" height="54" rx="14" fill="#eff9f4"/><text x="72" y="475" fill="#557064">14:00 • Manicure • Beatriz</text></g><rect x="424" y="242" width="176" height="286" rx="24" fill="#2a1530"/><text x="447" y="280" fill="#ffd5ec" font-size="17" font-weight="700">Ocupação</text><circle cx="512" cy="378" r="58" fill="none" stroke="#51305a" stroke-width="16"/><path d="M512 320a58 58 0 1 1-51 31" fill="none" stroke="#ff8fcf" stroke-width="16" stroke-linecap="round"/><text x="480" y="390" fill="#fff" font-size="29" font-weight="700">84%</text><text x="454" y="476" fill="#d7c6db" font-size="14">Equipe produtiva</text><rect x="30" y="562" width="570" height="54" rx="27" fill="url(#ac)"/><text x="155" y="597" fill="#241026" font-size="17" font-weight="700">AGENDA • CLIENTES • FINANCEIRO • CRM</text></g><text x="90" y="828" fill="#a998ad" font-size="18">React • Fastify • TypeScript • Prisma • MongoDB • multiempresa</text></g></svg>